<?xml version="1.0" standalone="no"?>
<!DOCTYPE svg PUBLIC "-//W3C//DTD SVG 20010904//EN"
 "http://www.w3.org/TR/2001/REC-SVG-20010904/DTD/svg10.dtd">
<svg version="1.0" xmlns="http://www.w3.org/2000/svg"
 width="1024.000000pt" height="555.000000pt" viewBox="0 0 1024.000000 555.000000"
 preserveAspectRatio="xMidYMid meet">

<g transform="translate(0.000000,555.000000) scale(0.100000,-0.100000)"
fill="#000000" stroke="none">
<path d="M4867 5503 c-4 -3 -7 -102 -7 -220 l0 -213 -192 0 c-106 0 -203 -3
-216 -6 l-22 -6 2 -242 3 -241 212 -3 213 -2 2 -228 3 -227 253 -3 c138 -1
252 1 252 5 1 5 1 107 1 228 l1 220 212 5 211 5 3 242 2 243 -23 5 c-13 4
-107 5 -209 3 l-187 -3 -5 28 c-3 16 -3 105 0 198 3 93 3 181 0 194 l-6 25
-249 0 c-136 0 -251 -3 -254 -7z"/>
<path d="M7609 4454 c-19 -23 -24 -137 -9 -203 24 -107 112 -251 214 -351 l46
-44 0 93 c0 105 -29 262 -61 337 -62 140 -149 217 -190 168z"/>
<path d="M7974 4339 c-16 -5 -41 -20 -55 -35 l-24 -26 3 -211 c4 -207 4 -214
32 -277 54 -126 50 -169 -29 -273 -62 -82 -83 -169 -125 -532 -14 -121 -33
-279 -41 -352 -23 -194 -61 -320 -105 -343 -28 -15 -55 16 -76 87 -31 108 -8
488 52 833 51 296 96 387 230 466 18 10 17 13 -6 59 -33 63 -77 88 -146 82
-91 -9 -158 -57 -204 -148 -48 -92 -101 -349 -136 -649 -21 -183 -30 -588 -15
-660 34 -161 125 -262 251 -277 120 -14 208 51 228 169 l7 41 35 -58 c44 -74
71 -93 151 -111 109 -23 109 -23 109 44 0 56 -2 59 -46 102 -26 25 -55 64 -65
87 -42 91 -41 344 1 703 20 174 32 235 73 390 25 94 25 99 23 473 l-1 379 -28
24 c-30 25 -44 28 -93 13z"/>
<path d="M6846 4298 c-39 -62 -23 -204 34 -319 45 -89 152 -232 162 -216 11
17 10 165 -2 269 -14 117 -43 193 -95 246 -47 47 -78 53 -99 20z"/>
<path d="M7155 4191 c-11 -5 -29 -18 -39 -30 -18 -20 -19 -37 -14 -335 5 -345
6 -340 -56 -422 -69 -90 -94 -199 -141 -613 -35 -310 -65 -441 -111 -492 -38
-42 -83 -7 -104 83 -26 106 5 500 60 777 45 224 84 298 192 371 37 25 69 51
72 58 10 23 -22 81 -56 102 -23 14 -50 20 -88 20 -105 0 -204 -71 -256 -184
-74 -162 -141 -572 -151 -921 -5 -167 -3 -211 11 -265 43 -165 141 -251 290
-253 102 -1 143 15 167 67 10 22 19 49 19 59 0 26 13 18 52 -33 51 -68 86 -84
195 -88 106 -5 101 -10 83 89 -9 48 -17 61 -69 109 -78 72 -91 116 -91 294 0
255 40 557 97 726 31 93 36 122 43 260 5 85 10 253 12 373 l3 219 -24 19 c-24
20 -62 24 -96 10z"/>
<path d="M2311 4110 c-24 -5 -64 -23 -90 -40 -47 -29 -131 -130 -131 -156 0
-23 -18 -25 -52 -8 -73 38 -195 16 -256 -46 l-26 -26 -51 51 c-64 66 -129 90
-221 82 -178 -14 -326 -160 -369 -362 -32 -151 -69 -2489 -40 -2537 10 -16 22
-12 130 39 66 31 121 57 123 58 2 2 3 160 3 351 -1 192 3 471 9 619 9 270 24
723 39 1165 8 261 14 288 75 316 29 14 36 14 68 1 70 -29 73 -46 70 -352 -1
-148 -9 -461 -17 -695 -21 -589 -31 -1300 -18 -1300 14 0 205 80 221 92 8 8
12 49 12 142 0 72 5 237 10 366 17 416 30 766 41 1155 5 209 15 404 21 434 24
127 129 150 183 41 17 -32 18 -61 11 -360 -3 -179 -15 -532 -26 -785 -32 -755
-36 -929 -19 -923 8 3 58 20 112 38 54 17 100 37 102 44 2 6 9 121 15 256 5
135 19 452 30 705 11 253 24 622 29 820 7 288 11 367 24 397 25 59 76 75 127
38 54 -39 60 -74 60 -363 0 -283 -26 -1054 -56 -1664 -4 -84 -3 -133 3 -133
26 0 216 59 222 69 7 11 20 309 41 956 5 154 14 433 21 620 16 478 8 568 -61
705 -33 66 -113 143 -174 169 -54 24 -137 32 -195 21z"/>
<path d="M4295 4098 c-2 -7 -6 -123 -9 -258 -4 -135 -9 -272 -13 -304 l-6 -59
49 7 c27 3 77 11 111 17 l61 11 7 91 c25 349 4 445 -107 492 -45 18 -87 20
-93 3z"/>
<path d="M6020 4028 c-54 -27 -85 -72 -94 -132 -29 -191 174 -245 260 -70 21
44 25 63 20 95 -10 61 -33 99 -71 115 -46 19 -63 18 -115 -8z"/>
<path d="M5129 3963 l-25 -4 -13 -297 c-6 -163 -21 -470 -31 -682 -23 -443
-40 -872 -40 -977 l0 -73 48 7 c90 12 96 15 110 67 l13 47 40 -36 c49 -44 76
-55 138 -55 65 0 145 41 178 92 43 65 53 127 68 433 8 160 20 370 26 469 13
208 8 355 -15 408 -24 56 -72 105 -122 124 -39 15 -52 15 -100 5 -30 -7 -68
-24 -85 -38 l-31 -26 6 114 c4 63 8 179 9 258 l2 144 -25 7 c-36 10 -121 17
-151 13z m310 -743 c39 -21 44 -59 37 -288 -4 -119 -13 -307 -21 -417 -19
-267 -42 -342 -113 -372 -30 -12 -37 -12 -58 1 -40 27 -48 54 -46 166 2 124
38 613 53 720 22 154 79 227 148 190z"/>
<path d="M8767 3855 c-90 -15 -110 -22 -103 -33 11 -18 -44 -843 -69 -1046
-24 -184 -69 -296 -120 -296 -58 0 -80 113 -71 370 11 311 47 870 62 938 4 19
0 22 -28 22 -18 0 -71 -7 -118 -15 -47 -8 -86 -15 -87 -15 -2 0 -3 -27 -3 -60
0 -33 -9 -185 -19 -337 -45 -634 -47 -731 -20 -887 27 -151 124 -258 249 -273
109 -13 305 86 377 191 70 102 82 236 30 336 -22 42 -27 65 -27 124 0 95 35
462 66 706 14 107 28 216 31 243 l6 47 -39 -1 c-22 -1 -74 -7 -117 -14z"/>
<path d="M3917 3829 c-27 -16 -47 -70 -47 -126 0 -35 12 -72 48 -147 l47 -101
0 -203 0 -204 -42 -36 c-74 -64 -93 -139 -108 -427 -10 -191 -34 -415 -50
-479 -41 -158 -103 -180 -152 -56 -15 39 -18 77 -17 275 1 571 68 794 251 840
44 11 48 15 51 45 5 46 -6 96 -24 115 -23 23 -100 19 -159 -9 -68 -31 -112
-70 -156 -139 -92 -142 -129 -378 -129 -821 l0 -230 -30 32 c-31 35 -50 41
-50 17 0 -27 -59 -140 -95 -182 -105 -123 -273 -54 -299 124 l-6 41 69 21
c157 48 303 194 357 357 26 81 27 312 2 395 -24 77 -75 148 -133 184 -43 26
-57 30 -124 30 -66 0 -83 -4 -131 -31 -107 -60 -165 -177 -189 -374 -18 -156
-34 -518 -27 -615 20 -257 169 -425 379 -425 124 0 209 56 262 173 15 32 30
79 34 105 l8 47 12 -30 c43 -112 128 -193 223 -214 51 -12 126 2 162 30 13 10
34 40 46 65 l23 46 27 -30 c45 -49 91 -67 167 -63 34 2 82 49 115 114 l30 61
15 -35 c26 -62 61 -89 114 -89 41 0 51 4 77 34 57 66 53 157 -11 238 l-40 51
7 146 c10 225 46 827 54 914 l8 77 -25 0 c-28 0 -192 -27 -197 -33 -2 -2 -8
-91 -14 -198 -43 -841 -43 -830 -81 -954 -35 -114 -97 -158 -136 -98 -16 25
-18 52 -16 259 3 327 14 438 55 549 l33 90 0 360 0 360 -30 60 c-43 86 -107
124 -158 94z m-752 -933 c71 -30 98 -127 72 -252 -20 -92 -47 -145 -109 -210
-46 -49 -117 -94 -146 -94 -15 0 -16 124 -2 310 12 157 32 210 90 241 42 23
51 23 95 5z"/>
<path d="M4810 3784 c-135 -22 -127 -13 -129 -148 -2 -89 1 -116 11 -116 36 0
194 34 204 44 17 16 27 236 11 235 -6 -1 -50 -7 -97 -15z"/>
<path d="M3405 3594 c-165 -24 -351 -51 -412 -60 l-113 -17 0 -43 c0 -53 -4
-53 178 -24 70 10 251 35 402 55 151 20 276 37 277 39 1 1 3 22 5 46 3 39 0
45 -17 47 -11 0 -155 -19 -320 -43z"/>
<path d="M6242 3570 c-57 -10 -105 -20 -106 -21 -3 -4 -21 -174 -67 -654 -41
-434 -62 -554 -109 -630 -25 -41 -66 -54 -92 -28 -33 34 -41 121 -29 323 20
317 60 718 88 873 8 48 14 89 12 91 -2 2 -53 -6 -114 -18 l-110 -21 -2 -115
c-1 -63 -10 -259 -19 -435 -10 -176 -18 -401 -18 -500 l-1 -180 33 -67 c37
-76 92 -129 151 -146 59 -18 160 -15 206 7 55 25 76 51 89 112 l12 52 21 -35
c30 -51 82 -86 143 -98 62 -12 130 -13 130 -2 0 4 -11 41 -23 82 -21 67 -28
79 -73 112 -72 55 -87 90 -92 219 -9 206 61 863 114 1073 8 32 3 32 -144 6z"/>
<path d="M9167 3474 c-49 -13 -93 -27 -98 -30 -5 -3 -9 -23 -9 -45 0 -123 -63
-720 -100 -945 -22 -136 -27 -144 -154 -226 -220 -141 -276 -181 -341 -242
-73 -69 -76 -80 -19 -92 25 -5 32 -2 44 21 24 44 116 122 186 156 50 25 82 33
140 37 71 4 76 4 71 -14 -3 -11 -31 -107 -62 -214 -72 -247 -139 -429 -221
-600 -128 -265 -267 -445 -422 -544 -83 -53 -120 -66 -191 -66 -107 0 -178 67
-188 177 -6 70 15 150 49 179 11 11 34 37 49 58 49 66 36 165 -26 214 -63 50
-148 35 -229 -39 -152 -139 -192 -420 -88 -613 41 -76 145 -176 224 -214 220
-108 483 -47 707 164 311 292 518 734 660 1409 79 374 111 686 137 1328 8 194
20 179 -119 141z"/>
<path d="M4778 3371 c-53 -9 -100 -19 -103 -23 -3 -3 -12 -140 -20 -304 -29
-602 -44 -951 -46 -1044 l-2 -95 34 3 c19 2 88 10 154 18 66 8 123 14 127 14
4 0 8 17 8 38 0 32 -6 43 -44 75 -68 56 -69 66 -52 374 19 320 43 660 60 836
10 113 10 127 -4 126 -8 -1 -59 -9 -112 -18z"/>
<path d="M6615 1939 c-173 -11 -526 -46 -620 -62 -38 -7 -69 -16 -67 -22 1 -5
44 -24 95 -41 158 -54 238 -96 335 -173 l42 -34 133 12 c256 22 746 11 940
-20 66 -11 68 -12 51 -30 -19 -21 -274 -195 -469 -319 -386 -247 -672 -382
-966 -454 l-131 -32 -30 -57 c-94 -175 -264 -307 -462 -357 -293 -74 -581 77
-652 344 -16 60 -18 212 -3 276 16 70 74 180 134 252 127 153 317 251 511 265
166 12 299 -34 406 -140 94 -92 138 -198 138 -329 0 -37 3 -49 13 -45 7 3 69
17 137 33 69 15 129 31 134 35 13 12 -19 168 -49 235 -85 193 -270 346 -517
428 -310 102 -811 96 -1578 -19 -735 -110 -1469 -335 -2165 -665 -142 -68
-295 -154 -295 -166 0 -20 84 -126 142 -181 65 -61 146 -114 220 -145 39 -16
75 -22 138 -22 78 -1 91 2 160 35 44 21 142 88 240 164 285 221 506 356 745
456 49 21 91 37 92 35 1 -1 -5 -24 -13 -51 -11 -36 -14 -78 -11 -147 3 -85 8
-105 40 -171 84 -178 260 -281 477 -281 254 0 422 167 338 334 -17 34 -35 51
-71 69 -74 37 -105 26 -196 -69 -81 -84 -131 -108 -194 -96 -164 33 -184 246
-38 395 95 98 244 156 506 201 164 27 487 68 498 63 4 -3 -17 -31 -47 -64
-110 -118 -176 -269 -196 -452 -42 -358 160 -693 503 -836 117 -48 220 -64
371 -58 163 6 257 30 391 97 200 100 363 263 454 454 17 34 40 71 53 83 13 11
122 78 242 148 342 198 733 455 986 649 234 180 420 328 420 336 0 29 -233 94
-439 122 -168 22 -639 32 -876 17z"/>
<path d="M8052 1635 c-50 -41 -93 -79 -97 -84 -3 -6 11 -25 31 -43 75 -66 91
-148 49 -248 -27 -65 -31 -106 -12 -130 59 -75 184 -64 270 24 53 55 71 100
75 189 4 74 2 83 -33 153 -25 51 -58 97 -105 144 -38 39 -73 70 -79 70 -5 0
-50 -34 -99 -75z"/>
<path d="M5497 1238 c-55 -32 -80 -91 -75 -173 5 -76 37 -131 107 -180 36 -25
52 -30 99 -30 99 1 154 64 154 174 0 169 -156 283 -285 209z"/>
</g>
</svg>
